<mxfile host="Electron" agent="Mozilla/5.0 (X11; Linux x86_64) AppleWebKit/537.36 (KHTML, like Gecko) draw.io/27.0.9 Chrome/134.0.6998.205 Electron/35.4.0 Safari/537.36" version="27.0.9">
  <diagram name="Page-1" id="kgwXTLfdDaUoidfaCvU3">
    <mxGraphModel dx="1426" dy="771" grid="1" gridSize="10" guides="1" tooltips="1" connect="1" arrows="1" fold="1" page="1" pageScale="1" pageWidth="850" pageHeight="1100" math="0" shadow="0">
      <root>
        <mxCell id="0" />
        <mxCell id="1" parent="0" />
        <mxCell id="tAivV0BWsHCmjTr8r-fl-1" value="" style="outlineConnect=0;dashed=0;verticalLabelPosition=bottom;verticalAlign=top;align=center;html=1;shape=mxgraph.aws3.classic_load_balancer;fillColor=#F58534;gradientColor=none;" vertex="1" parent="1">
          <mxGeometry x="391" y="120" width="69" height="72" as="geometry" />
        </mxCell>
        <mxCell id="tAivV0BWsHCmjTr8r-fl-2" value="" style="rounded=0;whiteSpace=wrap;html=1;" vertex="1" parent="1">
          <mxGeometry x="220.5" y="290" width="410" height="200" as="geometry" />
        </mxCell>
        <mxCell id="tAivV0BWsHCmjTr8r-fl-3" value="" style="outlineConnect=0;dashed=0;verticalLabelPosition=bottom;verticalAlign=top;align=center;html=1;shape=mxgraph.aws3.instance;fillColor=#F58534;gradientColor=none;" vertex="1" parent="1">
          <mxGeometry x="250" y="310" width="60" height="63" as="geometry" />
        </mxCell>
        <mxCell id="tAivV0BWsHCmjTr8r-fl-4" value="" style="outlineConnect=0;dashed=0;verticalLabelPosition=bottom;verticalAlign=top;align=center;html=1;shape=mxgraph.aws3.instance;fillColor=#F58534;gradientColor=none;" vertex="1" parent="1">
          <mxGeometry x="350" y="310" width="60" height="63" as="geometry" />
        </mxCell>
        <mxCell id="tAivV0BWsHCmjTr8r-fl-5" value="" style="outlineConnect=0;dashed=0;verticalLabelPosition=bottom;verticalAlign=top;align=center;html=1;shape=mxgraph.aws3.instance;fillColor=#F58534;gradientColor=none;" vertex="1" parent="1">
          <mxGeometry x="460" y="310" width="60" height="63" as="geometry" />
        </mxCell>
        <mxCell id="tAivV0BWsHCmjTr8r-fl-6" value="" style="outlineConnect=0;dashed=0;verticalLabelPosition=bottom;verticalAlign=top;align=center;html=1;shape=mxgraph.aws3.instance;fillColor=#F58534;gradientColor=none;" vertex="1" parent="1">
          <mxGeometry x="550" y="310" width="60" height="63" as="geometry" />
        </mxCell>
        <mxCell id="tAivV0BWsHCmjTr8r-fl-7" value="" style="outlineConnect=0;dashed=0;verticalLabelPosition=bottom;verticalAlign=top;align=center;html=1;shape=mxgraph.aws3.instance;fillColor=#F58534;gradientColor=none;" vertex="1" parent="1">
          <mxGeometry x="550" y="390" width="60" height="63" as="geometry" />
        </mxCell>
        <mxCell id="tAivV0BWsHCmjTr8r-fl-8" value="" style="outlineConnect=0;dashed=0;verticalLabelPosition=bottom;verticalAlign=top;align=center;html=1;shape=mxgraph.aws3.instance;fillColor=#F58534;gradientColor=none;" vertex="1" parent="1">
          <mxGeometry x="460" y="390" width="60" height="63" as="geometry" />
        </mxCell>
        <mxCell id="tAivV0BWsHCmjTr8r-fl-9" value="" style="outlineConnect=0;dashed=0;verticalLabelPosition=bottom;verticalAlign=top;align=center;html=1;shape=mxgraph.aws3.instance;fillColor=#F58534;gradientColor=none;" vertex="1" parent="1">
          <mxGeometry x="350" y="390" width="60" height="63" as="geometry" />
        </mxCell>
        <mxCell id="tAivV0BWsHCmjTr8r-fl-10" value="" style="outlineConnect=0;dashed=0;verticalLabelPosition=bottom;verticalAlign=top;align=center;html=1;shape=mxgraph.aws3.instance;fillColor=#F58534;gradientColor=none;" vertex="1" parent="1">
          <mxGeometry x="250" y="390" width="60" height="63" as="geometry" />
        </mxCell>
        <mxCell id="tAivV0BWsHCmjTr8r-fl-13" value="" style="endArrow=none;startArrow=none;endFill=0;startFill=0;endSize=8;html=1;verticalAlign=bottom;labelBackgroundColor=none;strokeWidth=3;rounded=0;" edge="1" parent="1" source="tAivV0BWsHCmjTr8r-fl-3" target="tAivV0BWsHCmjTr8r-fl-1">
          <mxGeometry width="160" relative="1" as="geometry">
            <mxPoint x="370" y="320" as="sourcePoint" />
            <mxPoint x="530" y="320" as="targetPoint" />
          </mxGeometry>
        </mxCell>
        <mxCell id="tAivV0BWsHCmjTr8r-fl-14" value="" style="endArrow=none;startArrow=none;endFill=0;startFill=0;endSize=8;html=1;verticalAlign=bottom;labelBackgroundColor=none;strokeWidth=3;rounded=0;" edge="1" parent="1" source="tAivV0BWsHCmjTr8r-fl-10" target="tAivV0BWsHCmjTr8r-fl-1">
          <mxGeometry width="160" relative="1" as="geometry">
            <mxPoint x="315" y="320" as="sourcePoint" />
            <mxPoint x="407" y="202" as="targetPoint" />
          </mxGeometry>
        </mxCell>
        <mxCell id="tAivV0BWsHCmjTr8r-fl-15" value="" style="endArrow=none;startArrow=none;endFill=0;startFill=0;endSize=8;html=1;verticalAlign=bottom;labelBackgroundColor=none;strokeWidth=3;rounded=0;" edge="1" parent="1" source="tAivV0BWsHCmjTr8r-fl-4" target="tAivV0BWsHCmjTr8r-fl-1">
          <mxGeometry width="160" relative="1" as="geometry">
            <mxPoint x="307" y="400" as="sourcePoint" />
            <mxPoint x="416" y="202" as="targetPoint" />
          </mxGeometry>
        </mxCell>
        <mxCell id="tAivV0BWsHCmjTr8r-fl-16" value="" style="endArrow=none;startArrow=none;endFill=0;startFill=0;endSize=8;html=1;verticalAlign=bottom;labelBackgroundColor=none;strokeWidth=3;rounded=0;" edge="1" parent="1" source="tAivV0BWsHCmjTr8r-fl-9" target="tAivV0BWsHCmjTr8r-fl-1">
          <mxGeometry width="160" relative="1" as="geometry">
            <mxPoint x="398" y="320" as="sourcePoint" />
            <mxPoint x="427" y="202" as="targetPoint" />
          </mxGeometry>
        </mxCell>
        <mxCell id="tAivV0BWsHCmjTr8r-fl-17" value="" style="endArrow=none;startArrow=none;endFill=0;startFill=0;endSize=8;html=1;verticalAlign=bottom;labelBackgroundColor=none;strokeWidth=3;rounded=0;" edge="1" parent="1" source="tAivV0BWsHCmjTr8r-fl-5" target="tAivV0BWsHCmjTr8r-fl-1">
          <mxGeometry width="160" relative="1" as="geometry">
            <mxPoint x="395" y="400" as="sourcePoint" />
            <mxPoint x="429" y="202" as="targetPoint" />
          </mxGeometry>
        </mxCell>
        <mxCell id="tAivV0BWsHCmjTr8r-fl-18" value="" style="endArrow=none;startArrow=none;endFill=0;startFill=0;endSize=8;html=1;verticalAlign=bottom;labelBackgroundColor=none;strokeWidth=3;rounded=0;" edge="1" parent="1" source="tAivV0BWsHCmjTr8r-fl-6" target="tAivV0BWsHCmjTr8r-fl-1">
          <mxGeometry width="160" relative="1" as="geometry">
            <mxPoint x="489" y="320" as="sourcePoint" />
            <mxPoint x="448" y="202" as="targetPoint" />
          </mxGeometry>
        </mxCell>
        <mxCell id="tAivV0BWsHCmjTr8r-fl-19" value="" style="endArrow=none;startArrow=none;endFill=0;startFill=0;endSize=8;html=1;verticalAlign=bottom;labelBackgroundColor=none;strokeWidth=3;rounded=0;" edge="1" parent="1" source="tAivV0BWsHCmjTr8r-fl-8" target="tAivV0BWsHCmjTr8r-fl-1">
          <mxGeometry width="160" relative="1" as="geometry">
            <mxPoint x="564" y="320" as="sourcePoint" />
            <mxPoint x="465" y="202" as="targetPoint" />
          </mxGeometry>
        </mxCell>
        <mxCell id="tAivV0BWsHCmjTr8r-fl-20" value="" style="endArrow=none;startArrow=none;endFill=0;startFill=0;endSize=8;html=1;verticalAlign=bottom;labelBackgroundColor=none;strokeWidth=3;rounded=0;" edge="1" parent="1" source="tAivV0BWsHCmjTr8r-fl-7" target="tAivV0BWsHCmjTr8r-fl-1">
          <mxGeometry width="160" relative="1" as="geometry">
            <mxPoint x="492" y="400" as="sourcePoint" />
            <mxPoint x="444" y="202" as="targetPoint" />
          </mxGeometry>
        </mxCell>
        <mxCell id="tAivV0BWsHCmjTr8r-fl-21" value="" style="html=1;verticalLabelPosition=bottom;align=center;labelBackgroundColor=#ffffff;verticalAlign=top;strokeWidth=2;strokeColor=#0080F0;shadow=0;dashed=0;shape=mxgraph.ios7.icons.clock;" vertex="1" parent="1">
          <mxGeometry x="690" y="520" width="100" height="100" as="geometry" />
        </mxCell>
        <mxCell id="tAivV0BWsHCmjTr8r-fl-22" value="" style="endArrow=none;startArrow=none;endFill=0;startFill=0;endSize=8;html=1;verticalAlign=bottom;labelBackgroundColor=none;strokeWidth=3;rounded=0;exitX=0.14;exitY=0.15;exitDx=0;exitDy=0;exitPerimeter=0;" edge="1" parent="1" source="tAivV0BWsHCmjTr8r-fl-21" target="tAivV0BWsHCmjTr8r-fl-6">
          <mxGeometry width="160" relative="1" as="geometry">
            <mxPoint x="790" y="453" as="sourcePoint" />
            <mxPoint x="674" y="255" as="targetPoint" />
          </mxGeometry>
        </mxCell>
        <mxCell id="tAivV0BWsHCmjTr8r-fl-23" value="" style="endArrow=none;startArrow=none;endFill=0;startFill=0;endSize=8;html=1;verticalAlign=bottom;labelBackgroundColor=none;strokeWidth=3;rounded=0;exitX=0.17;exitY=0.16;exitDx=0;exitDy=0;exitPerimeter=0;" edge="1" parent="1" source="tAivV0BWsHCmjTr8r-fl-21" target="tAivV0BWsHCmjTr8r-fl-7">
          <mxGeometry width="160" relative="1" as="geometry">
            <mxPoint x="714" y="545" as="sourcePoint" />
            <mxPoint x="610" y="383" as="targetPoint" />
          </mxGeometry>
        </mxCell>
        <mxCell id="tAivV0BWsHCmjTr8r-fl-24" value="" style="endArrow=none;startArrow=none;endFill=0;startFill=0;endSize=8;html=1;verticalAlign=bottom;labelBackgroundColor=none;strokeWidth=3;rounded=0;exitX=0.08;exitY=0.19;exitDx=0;exitDy=0;exitPerimeter=0;" edge="1" parent="1" source="tAivV0BWsHCmjTr8r-fl-21" target="tAivV0BWsHCmjTr8r-fl-5">
          <mxGeometry width="160" relative="1" as="geometry">
            <mxPoint x="717" y="546" as="sourcePoint" />
            <mxPoint x="620" y="459" as="targetPoint" />
          </mxGeometry>
        </mxCell>
        <mxCell id="tAivV0BWsHCmjTr8r-fl-25" value="" style="endArrow=none;startArrow=none;endFill=0;startFill=0;endSize=8;html=1;verticalAlign=bottom;labelBackgroundColor=none;strokeWidth=3;rounded=0;exitX=0.14;exitY=0.2;exitDx=0;exitDy=0;exitPerimeter=0;" edge="1" parent="1" source="tAivV0BWsHCmjTr8r-fl-21" target="tAivV0BWsHCmjTr8r-fl-8">
          <mxGeometry width="160" relative="1" as="geometry">
            <mxPoint x="708" y="549" as="sourcePoint" />
            <mxPoint x="530" y="380" as="targetPoint" />
          </mxGeometry>
        </mxCell>
        <mxCell id="tAivV0BWsHCmjTr8r-fl-26" value="" style="endArrow=none;startArrow=none;endFill=0;startFill=0;endSize=8;html=1;verticalAlign=bottom;labelBackgroundColor=none;strokeWidth=3;rounded=0;exitX=0.05;exitY=0.39;exitDx=0;exitDy=0;exitPerimeter=0;" edge="1" parent="1" source="tAivV0BWsHCmjTr8r-fl-21" target="tAivV0BWsHCmjTr8r-fl-4">
          <mxGeometry width="160" relative="1" as="geometry">
            <mxPoint x="714" y="550" as="sourcePoint" />
            <mxPoint x="530" y="448" as="targetPoint" />
          </mxGeometry>
        </mxCell>
        <mxCell id="tAivV0BWsHCmjTr8r-fl-27" value="" style="endArrow=none;startArrow=none;endFill=0;startFill=0;endSize=8;html=1;verticalAlign=bottom;labelBackgroundColor=none;strokeWidth=3;rounded=0;exitX=0.04;exitY=0.42;exitDx=0;exitDy=0;exitPerimeter=0;" edge="1" parent="1" source="tAivV0BWsHCmjTr8r-fl-21" target="tAivV0BWsHCmjTr8r-fl-9">
          <mxGeometry width="160" relative="1" as="geometry">
            <mxPoint x="705" y="569" as="sourcePoint" />
            <mxPoint x="420" y="372" as="targetPoint" />
          </mxGeometry>
        </mxCell>
        <mxCell id="tAivV0BWsHCmjTr8r-fl-28" value="" style="endArrow=none;startArrow=none;endFill=0;startFill=0;endSize=8;html=1;verticalAlign=bottom;labelBackgroundColor=none;strokeWidth=3;rounded=0;exitX=-0.01;exitY=0.57;exitDx=0;exitDy=0;exitPerimeter=0;" edge="1" parent="1" source="tAivV0BWsHCmjTr8r-fl-21" target="tAivV0BWsHCmjTr8r-fl-3">
          <mxGeometry width="160" relative="1" as="geometry">
            <mxPoint x="704" y="572" as="sourcePoint" />
            <mxPoint x="420" y="445" as="targetPoint" />
          </mxGeometry>
        </mxCell>
        <mxCell id="tAivV0BWsHCmjTr8r-fl-29" value="" style="endArrow=none;startArrow=none;endFill=0;startFill=0;endSize=8;html=1;verticalAlign=bottom;labelBackgroundColor=none;strokeWidth=3;rounded=0;" edge="1" parent="1" target="tAivV0BWsHCmjTr8r-fl-10">
          <mxGeometry width="160" relative="1" as="geometry">
            <mxPoint x="690" y="580" as="sourcePoint" />
            <mxPoint x="320" y="369" as="targetPoint" />
          </mxGeometry>
        </mxCell>
      </root>
    </mxGraphModel>
  </diagram>
</mxfile>
